<svg id="Layer_1" data-name="Layer 1" xmlns="http://www.w3.org/2000/svg" viewBox="0 0 588.75 557.78"><defs><style>.cls-1{fill:#fff;}</style></defs><path class="cls-1" d="M517.46,324a21.26,21.26,0,0,1,15-36.29h17a21.26,21.26,0,1,1,0,42.51h-17A21.22,21.22,0,0,1,517.46,324Zm9.76-101.63a21.25,21.25,0,0,0,21.25,21.26h43a21.26,21.26,0,1,0,0-42.51h-43A21.24,21.24,0,0,0,527.22,222.33Zm96.87,71.33a21.27,21.27,0,1,0,6.22,15A21.18,21.18,0,0,0,624.09,293.66Zm-36.6,80H551a21.26,21.26,0,0,0,0,42.51h36.5a21.26,21.26,0,0,0,0-42.51ZM534.49,158a21.24,21.24,0,1,0-15-6.22A21.25,21.25,0,0,0,534.49,158Zm-3.18,301.67a21.25,21.25,0,1,0,15,6.23A21.26,21.26,0,0,0,531.31,459.67Zm-39.82-86H482a21.26,21.26,0,1,0,0,42.51h9.49a21.26,21.26,0,1,0,0-42.51ZM193.62,394.93a21.26,21.26,0,0,0-21.26-21.26H143.81a21.26,21.26,0,1,0,0,42.51h28.55A21.25,21.25,0,0,0,193.62,394.93Zm183-258.18A21.24,21.24,0,0,0,397.9,158h78.2a21.26,21.26,0,0,0,0-42.51H397.9A21.25,21.25,0,0,0,376.65,136.75Zm-133-64.84H369.92a21.26,21.26,0,1,0,0-42.51H243.68a21.26,21.26,0,0,0,0,42.51ZM138.24,158H315.77a21.26,21.26,0,0,0,0-42.51H138.24a21.26,21.26,0,1,0,0,42.51ZM86.31,244.1h84.55a21.26,21.26,0,0,0,0-42.51H86.31a21.26,21.26,0,0,0,0,42.51Zm381.93-21a21.26,21.26,0,1,0,21.25-21.25A21.17,21.17,0,0,0,468.24,223.1ZM128.3,308.69a21.26,21.26,0,1,0,21.26-21.26A21.18,21.18,0,0,0,128.3,308.69Zm231,236H269.1a21.26,21.26,0,1,0,0,42.51h90.2a21.26,21.26,0,0,0,0-42.51Zm113-85H349a21.26,21.26,0,1,0,0,42.51h123.3a21.26,21.26,0,0,0,0-42.51ZM90.51,287.43H62.82a21.26,21.26,0,1,0,0,42.51H90.51a21.26,21.26,0,0,0,0-42.51ZM429.2,71.91a21.27,21.27,0,1,0-15-6.23A21.25,21.25,0,0,0,429.2,71.91Zm-168,409a21.26,21.26,0,0,0-21.26-21.26h-40.1a21.26,21.26,0,0,0,0,42.51h40.1A21.25,21.25,0,0,0,261.18,480.93Zm-120-21.26a21.27,21.27,0,1,0,15,6.23A21.25,21.25,0,0,0,141.14,459.67Zm-56.33-86a21.25,21.25,0,1,0,15,6.23A21.26,21.26,0,0,0,84.81,373.67Zm345.68,171a21.27,21.27,0,1,0,15,6.23A21.25,21.25,0,0,0,430.49,544.67Z" transform="translate(-41.56 -29.4)"/></svg>