<svg data-name="Layer 1"
    xmlns="http://www.w3.org/2000/svg" viewBox="0 0 588.8 557.8">
    <defs>
        <linearGradient id="a" x1="41.56" y1="308.29" x2="630.31" y2="308.29" gradientUnits="userSpaceOnUse">
            <stop class="stop1" offset="0" stop-color="#8a398a">
                <animate attributeName="offset" values="0;1;0" dur="1500ms" repeatCount="indefinite"/>
            </stop>

            <stop offset="0.11" stop-color="#9b3581"/>
            <stop offset="0.32" stop-color="#b62e73"/>
            <stop offset="0.54" stop-color="#c92969"/>
            <stop offset="0.76" stop-color="#d42663"/>
            <stop offset="1" stop-color="#d82561"/>
        </linearGradient>
    </defs>
    <path d="M517.5 324a21.2 21.2 0 0115-36.3h17a21.3 21.3 0 010 42.5h-17a21.2 21.2 0 01-15-6.2zm9.7-101.7a21.3 21.3 0 0021.3 21.3h43a21.2 21.2 0 0021.2-21.3 21.2 21.2 0 00-21.2-21.2h-43a21.2 21.2 0 00-21.3 21.2zm96.9 71.4a21.2 21.2 0 106.2 15 21.2 21.2 0 00-6.2-15zm-36.6 80H551a21.3 21.3 0 000 42.5h36.5a21.3 21.3 0 000-42.5zm-53-215.7a21.3 21.3 0 10-15-6.2 21.2 21.2 0 0015 6.2zm-3.2 301.7a21.3 21.3 0 1015 6.2 21.3 21.3 0 00-15-6.2zm-39.8-86H482a21.3 21.3 0 000 42.5h9.5a21.3 21.3 0 000-42.5zm-297.9 21.2a21.2 21.2 0 00-21.2-21.2h-28.6a21.3 21.3 0 000 42.5h28.6a21.2 21.2 0 0021.2-21.3zm183-258.1a21.3 21.3 0 0021.3 21.2h78.2a21.3 21.3 0 000-42.5h-78.2a21.3 21.3 0 00-21.3 21.3zM243.7 71.9h126.2a21.3 21.3 0 000-42.5H243.7a21.3 21.3 0 00-21.3 21.3 21.2 21.2 0 0021.3 21.2zM138.2 158h177.6a21.2 21.2 0 0021.2-21.2 21.2 21.2 0 00-21.2-21.3H138.2a21.2 21.2 0 00-21.2 21.3 21.2 21.2 0 0021.2 21.2zm-51.9 86.1h84.6a21.2 21.2 0 0021.2-21.2 21.2 21.2 0 00-21.2-21.3H86.3a21.3 21.3 0 000 42.5zm381.9-21a21.3 21.3 0 1021.3-21.2 21.3 21.3 0 00-21.3 21.2zm-339.9 85.6a21.2 21.2 0 1021.3-21.3 21.2 21.2 0 00-21.3 21.3zm231 236h-90.2a21.3 21.3 0 000 42.5h90.2a21.3 21.3 0 000-42.5zm113-85H349a21.3 21.3 0 000 42.5h123.3a21.3 21.3 0 000-42.5zM90.5 287.4H62.8a21.3 21.3 0 00-21.2 21.3 21.2 21.2 0 0021.2 21.2h27.7a21.3 21.3 0 0021.3-21.2 21.5 21.5 0 00-21.3-21.3zM429.2 71.9a21.3 21.3 0 10-15-6.2 21.2 21.2 0 0015 6.2zm-168 409a21.2 21.2 0 00-21.3-21.2h-40.1a21.3 21.3 0 000 42.5h40.1a21.3 21.3 0 0021.3-21.3zm-120.1-21.2a21.2 21.2 0 00-21.2 21.2 21.3 21.3 0 1021.2-21.2zm-56.3-86a21.3 21.3 0 1015 6.2 21.3 21.3 0 00-15-6.2zm345.7 171a21.2 21.2 0 1015 6.2 21.2 21.2 0 00-15-6.2z" transform="translate(-41.6 -29.4)" fill="url(#a)"/>
</svg>